<?xml version="1.0" encoding="UTF-8" standalone="no"?>
<!-- Created with Inkscape (http://www.inkscape.org/) -->

<svg
   width="100"
   height="100"
   viewBox="0 0 66.674997 68.262501"
   version="1.1"
   id="svg5"
   xml:space="preserve"
   xmlns="http://www.w3.org/2000/svg"
   xmlns:svg="http://www.w3.org/2000/svg"
   xmlns:rdf="http://www.w3.org/1999/02/22-rdf-syntax-ns#"
   xmlns:cc="http://creativecommons.org/ns#"
   xmlns:dc="http://purl.org/dc/elements/1.1/"><title
     id="title7018">Bangladesh Police - বাংলাদেশ পুলিশ</title><defs
     id="defs2" /><g
     id="layer1"
     transform="matrix(0.83333322,0,0,0.83333322,161.3118,-39.816339)"><path
       id="path1102"
       style="color:#000000;fill:#12007b;fill-opacity:1;stroke-width:0.779352"
       d="m -153.95384,48.069863 c -0.12754,4.56e-4 -0.24172,0.07914 -0.28756,0.198149 -0.5591,1.444475 -1.038,3.060094 -1.39107,4.802298 -0.68765,-1.215359 -1.4844,-2.28833 -2.4084,-3.194953 -0.0878,-0.08579 -0.21801,-0.111551 -0.33186,-0.06564 -0.11325,0.04573 -0.18899,0.15382 -0.19331,0.275879 -0.0576,1.58795 0.0301,3.17588 0.27185,4.764037 -1.18226,-0.963194 -2.4769,-1.762794 -3.79102,-2.515931 -0.24019,-0.138416 -0.52717,0.08468 -0.45228,0.351594 0.56417,2.016509 1.37636,3.998237 2.44827,5.942058 -1.96769,-0.842701 -3.94954,-1.360817 -5.94327,-1.558209 -0.24577,-0.0239 -0.41908,0.235625 -0.30286,0.453488 1.4826,2.756038 3.83428,4.844588 6.37058,6.697602 0.87462,0.638997 1.80957,0.802519 2.70763,0.806692 0.87876,0.0041 1.73439,-0.130993 2.53929,-0.126058 0.16644,0.05915 0.31718,0.100009 0.4551,0.136127 v 2.308921 c -5.98181,0.138388 -12.17038,2.092969 -17.57607,5.534081 l -0.0314,0.01973 a 0.27604378,0.27604378 0 0 0 -0.062,0.412408 l 0.0234,0.02738 c 1.98698,2.346669 2.46666,5.511496 1.96216,8.733064 -0.49153,3.138744 -1.92383,6.311304 -3.7592,8.746344 l -1.22715,-3.028212 c -0.2145,-0.468966 -0.41549,-1.014456 0.14176,-1.66896 1.79938,-2.113428 0.45663,-3.392958 -1.03102,-3.40881 -1.05564,-0.01122 -2.05698,1.056912 -1.35523,2.79543 0.0809,0.200382 0.13488,0.528384 0.0922,0.740244 -0.1825,0.906612 -0.43404,1.557924 -0.87113,2.099892 -0.0927,-0.07264 -0.177,-0.129468 -0.27829,-0.167538 -0.0506,-0.01902 -0.1157,-0.03618 -0.18648,-0.03546 -0.0708,6e-4 -0.14732,0.01956 -0.22151,0.07209 -0.14837,0.105012 -0.17256,0.269838 -0.16753,0.378978 0.005,0.109146 0.0329,0.207618 0.0745,0.318168 l 6.14988,16.378324 c 0.21119,0.56247 0.78692,0.97852 1.41081,0.90738 0.68424,-0.078 1.33977,-0.25143 1.89208,-0.53283 l 0.82522,-0.42006 c 1.3095,-0.66719 3.58702,-0.66719 4.89654,0 0.27493,0.14007 0.55029,0.27998 0.82522,0.42006 1.55051,0.78997 3.90946,0.78997 5.45997,0 l 0.82361,-0.42006 c 1.30947,-0.66719 3.58868,-0.66719 4.89815,0 l 0.82522,0.42006 c 1.55051,0.78997 3.90785,0.78997 5.45836,0 l 0.82522,-0.42006 c 1.30953,-0.66719 3.58863,-0.66719 4.89816,0 l 0.82521,0.42006 c 0.5523,0.2814 1.20623,0.4548 1.89047,0.53283 0.62805,0.0716 1.18242,-0.38789 1.31214,-0.98189 l 3.23764,-14.826152 c 0.0488,-0.223512 0.0306,-0.486528 -0.18124,-0.643584 -0.21183,-0.15705 -0.46545,-0.09945 -0.66653,0.0078 -1.64682,0.877092 -3.60573,1.631244 -5.77493,2.254152 l 1.47969,-18.725503 a 0.25794727,0.25794727 0 0 0 -0.0882,-0.215064 l -0.019,-0.01651 c -4.42976,-3.886802 -10.04406,-5.687037 -15.90228,-5.716926 -0.0701,-3.57e-4 -0.14045,9.6e-4 -0.21063,0.0011 v -2.30082 c 0.13792,-0.03611 0.28866,-0.07697 0.45509,-0.136127 0.80488,-0.0049 1.66016,0.130142 2.53889,0.126058 0.89805,-0.0042 1.83344,-0.167696 2.70804,-0.806692 2.53631,-1.853013 4.88798,-3.941564 6.37058,-6.697603 0.11635,-0.218035 -0.0573,-0.477748 -0.30327,-0.453487 -1.99371,0.197391 -3.97515,0.715508 -5.94287,1.558209 1.07195,-1.94382 1.88411,-3.925549 2.44827,-5.942059 0.0455,-0.164832 -0.0514,-0.335308 -0.21627,-0.380591 -0.0794,-0.02216 -0.16434,-0.01173 -0.23601,0.029 -1.31449,0.753354 -2.6089,1.553173 -3.79101,2.516736 0.24219,-1.588418 0.33106,-3.176629 0.27347,-4.764842 -0.005,-0.12245 -0.0811,-0.230644 -0.19493,-0.275879 -0.11385,-0.04589 -0.24406,-0.02014 -0.33186,0.06565 -0.9236,0.906236 -1.72013,1.978627 -2.40759,3.193343 -0.35278,-1.741598 -0.83134,-3.356653 -1.39027,-4.800687 -0.0461,-0.119562 -0.16104,-0.19836 -0.28917,-0.19815 z m 0,1.327439 c 1.33209,3.829561 2.11142,8.701629 1.47645,13.940115 -0.0539,0.444481 -0.26735,0.656647 -0.56907,0.825219 -0.18263,0.102033 -0.39268,0.169732 -0.59848,0.227146 v -0.48168 -11.108837 c -2.1e-4,-0.170512 -0.13839,-0.308683 -0.3089,-0.308904 -0.17051,2.21e-4 -0.30868,0.138392 -0.30891,0.308904 v 11.108837 0.48168 c -0.20583,-0.05742 -0.41581,-0.125095 -0.59847,-0.227146 -0.30173,-0.168572 -0.5152,-0.380738 -0.56908,-0.825219 -0.63495,-5.238346 0.14441,-10.110598 1.47646,-13.940115 z m 3.92875,1.619829 c 2.7e-4,1.48883 -0.0525,2.977192 -0.32098,4.466007 -0.38912,0.357355 -0.76245,0.73677 -1.1164,1.143789 l 1.11921,-3.418073 c 0.0527,-0.162129 -0.0358,-0.336308 -0.19775,-0.389452 -0.16225,-0.05293 -0.33671,0.03556 -0.38985,0.197746 l -0.91181,2.783351 c -0.0687,-0.598943 -0.15266,-1.186787 -0.2509,-1.762399 0.5912,-1.151508 1.29485,-2.137154 2.06848,-3.020969 z m -7.85589,0.0013 c 0.77307,0.883444 1.47715,1.868564 2.06808,3.019358 -0.0984,0.576018 -0.1833,1.164226 -0.25212,1.763608 l -0.9118,-2.784156 c -0.0532,-0.162184 -0.22761,-0.250677 -0.38986,-0.197747 -0.16197,0.05314 -0.25041,0.227323 -0.19775,0.389452 l 1.11842,3.415253 c -0.35306,-0.405663 -0.72594,-0.783857 -1.11399,-1.140163 -0.26844,-1.488582 -0.32117,-2.977009 -0.32098,-4.465605 z m -3.76282,2.339932 c 2.04488,1.219251 3.97454,2.552972 5.40762,4.522392 -0.0334,0.660181 -0.0474,1.330649 -0.0399,2.010087 l -3.78941,-4.955743 c -0.05,-0.06533 -0.12385,-0.108087 -0.2054,-0.118809 -0.0812,-0.01064 -0.16334,0.01138 -0.22835,0.06122 -0.13586,0.103725 -0.16184,0.297984 -0.058,0.433753 l 3.93842,5.150267 c -0.83336,-0.524993 -1.66915,-0.990017 -2.50787,-1.395502 -1.09964,-1.868773 -1.90518,-3.774997 -2.51715,-5.707662 z m 15.37992,0 c -0.61188,1.932398 -1.41618,3.838332 -2.51553,5.706857 -0.83904,0.405557 -1.67543,0.870755 -2.50908,1.395904 l 3.93761,-5.149864 c 0.10393,-0.135667 0.0781,-0.329909 -0.0576,-0.433753 -0.065,-0.04984 -0.14714,-0.07186 -0.22836,-0.06122 -0.0811,0.01103 -0.15453,0.05375 -0.2042,0.11881 l -3.79061,4.955742 c 0.008,-0.679569 -0.006,-1.350179 -0.0394,-2.010489 1.43299,-1.969041 3.36262,-3.302888 5.40722,-4.521988 z m -19.03803,4.515948 c 3.04396,0.43599 6.06965,1.556748 9.08103,3.584003 0.0264,0.444032 0.0618,0.891011 0.10754,1.340728 l -6.6952,-3.889281 c -0.071,-0.04083 -0.15529,-0.05184 -0.23439,-0.03061 -0.0793,0.0208 -0.14708,0.07222 -0.18848,0.142973 -0.0861,0.147887 -0.0357,0.337559 0.11237,0.423283 l 7.10114,4.12569 c 0.0648,0.302357 0.20174,0.549771 0.37496,0.746282 -0.55083,0.03799 -1.09013,0.09264 -1.61097,0.09021 -0.82868,-0.0038 -1.59759,-0.139797 -2.34557,-0.686273 -2.27683,-1.663446 -4.27922,-3.551804 -5.70243,-5.847011 z m 22.69573,0 c -1.42322,2.295207 -3.42518,4.183564 -5.70203,5.847011 -0.74798,0.546477 -1.51686,0.682422 -2.34556,0.686273 -0.52084,0.0024 -1.06014,-0.05222 -1.61097,-0.09021 0.1732,-0.196511 0.31017,-0.443925 0.37495,-0.746282 l 7.10075,-4.12569 c 0.14823,-0.08559 0.19877,-0.275292 0.11276,-0.423283 -0.0415,-0.07084 -0.10944,-0.12227 -0.18888,-0.142973 -0.079,-0.02135 -0.16335,-0.01049 -0.23439,0.03021 l -6.69519,3.890087 c 0.0457,-0.449858 0.0815,-0.896966 0.10794,-1.341131 3.0113,-2.027193 6.03673,-3.14802 9.08062,-3.584003 z m 1.85503,2.064054 c -0.66131,-0.0037 -1.33864,0.07038 -2.02619,0.214661 -0.17893,0.0377 -0.28627,0.221544 -0.23118,0.395896 0.75272,2.395884 2.20408,3.674035 3.80672,4.636368 -0.6463,0.0088 -1.32101,0.0867 -2.04593,0.28192 -0.21119,0.0569 -0.29823,0.309019 -0.16714,0.484096 1.54454,2.05811 3.30127,3.289389 5.21431,3.813968 0.87983,1.713011 2.00192,2.73795 3.89572,3.943249 0.86476,2.434032 2.22329,3.764608 3.33672,4.737054 -0.13473,0.0888 -0.17856,0.266251 -0.10069,0.407575 0.93295,1.675113 2.05307,3.823539 2.33389,4.882041 -0.11416,1.87971 0.0788,3.611178 0.65406,5.150664 -0.0122,-0.0078 -0.0239,-0.0153 -0.0362,-0.02292 -0.0843,-0.05196 -0.18831,-0.06055 -0.2799,-0.02298 -0.0919,0.03804 -0.15996,0.117882 -0.18285,0.214668 -0.54709,2.307948 -0.45745,4.260318 0.0173,6.238075 -0.26415,-0.208728 -0.53533,-0.394926 -0.80751,-0.561834 -0.0796,-0.04854 -0.17677,-0.05862 -0.2646,-0.02736 -0.0883,0.03108 -0.15775,0.100584 -0.18888,0.188892 -0.56522,1.600878 -0.62146,3.347886 -0.54451,5.001252 -0.0451,-0.09141 -0.0916,-0.182112 -0.14056,-0.271854 -0.0416,-0.07723 -0.11409,-0.133158 -0.19936,-0.15384 -0.0854,-0.02082 -0.17561,-0.0036 -0.24808,0.04554 -1.35948,0.932954 -2.43525,2.032434 -3.09306,3.610584 -0.58274,1.39807 -0.8371,3.15823 -0.72574,5.50186 -0.31731,-0.37239 -0.63473,-0.74611 -0.95329,-1.12687 -0.0546,-0.0655 -0.13365,-0.10553 -0.2187,-0.11075 -0.042,-0.002 -0.0841,0.003 -0.12363,0.0177 -0.12306,0.0445 -0.20482,0.16155 -0.20419,0.29239 l 0.0351,8.66258 c -2.24552,-1.20457 -4.76343,-2.19518 -7.71414,-2.84175 -0.28773,-0.0623 -0.49155,0.27464 -0.30286,0.50061 0.53104,0.63047 1.04751,1.25948 1.5562,1.88765 -3.96958,-1.50843 -8.44043,-2.28032 -13.32875,-2.28032 -4.857,0 -9.30286,0.76195 -13.25385,2.25133 0.50123,-0.61858 1.00997,-1.23786 1.53284,-1.85866 0.18869,-0.22597 -0.0151,-0.56286 -0.30286,-0.50061 -2.95069,0.64657 -5.46862,1.63718 -7.71413,2.84175 l 0.035,-8.66258 c 6e-4,-0.17863 -0.14909,-0.32096 -0.32742,-0.31051 -0.0853,0.005 -0.16454,0.0454 -0.2191,0.11115 -0.50776,0.60689 -1.01285,1.19765 -1.51914,1.7914 0.004,-3.86007 -1.23154,-8.11842 -3.12527,-10.78463 -0.0622,-0.08738 -0.16524,-0.136302 -0.27227,-0.129276 -0.10754,0.007 -0.20382,0.06905 -0.25413,0.164316 -0.20278,0.382428 -0.39369,0.786096 -0.57148,1.207818 -0.047,-1.786128 -0.46817,-3.517176 -1.35402,-5.221147 0.57082,-2.90853 0.30515,-6.552462 -0.0185,-8.153112 -0.0191,-0.09725 -0.0836,-0.179466 -0.17358,-0.221106 -0.0897,-0.04122 -0.19368,-0.0372 -0.2799,0.01086 -0.18257,0.101196 -0.36873,0.206334 -0.55741,0.315348 0.92195,-1.6167 1.57938,-3.685992 1.71528,-5.877618 1.76157,-1.599977 4.43269,-3.565534 4.96944,-7.35367 2.82582,-1.22957 4.27372,-3.515874 5.19618,-5.894535 1.91333,-1.488726 3.9235,-3.467658 5.54214,-6.685923 0.10296,-0.204059 -0.0433,-0.445464 -0.27185,-0.448655 -0.0149,-2.77e-4 -0.0298,5.31e-4 -0.0448,0.0024 -3.04243,0.405957 -5.93613,1.001715 -8.14909,2.540901 0.007,-0.06554 0.0152,-0.130885 0.0221,-0.196538 0.0242,-0.223275 -0.19006,-0.39714 -0.40355,-0.32743 -3.21557,1.038713 -5.4042,3.182765 -7.29245,5.878425 -0.0614,-0.100162 -0.12654,-0.199561 -0.19492,-0.298028 -0.0477,-0.069 -0.12142,-0.115658 -0.2042,-0.129281 -0.0825,-0.01368 -0.1671,0.0066 -0.23439,0.05639 -1.91001,1.412105 -3.1701,3.466739 -3.5683,5.533275 -0.005,-0.0077 -0.0107,-0.01528 -0.0161,-0.02296 -0.0558,-0.07909 -0.14533,-0.127526 -0.24205,-0.130892 -0.097,-0.0036 -0.19006,0.03866 -0.25131,0.113976 -2.23069,2.762101 -3.4159,5.67906 -4.04152,9.042771 -0.2958,-0.225744 -0.60432,-0.440616 -0.9267,-0.643584 -0.0813,-0.05058 -0.18133,-0.06067 -0.27105,-0.02736 -0.09,0.03276 -0.15974,0.105324 -0.18889,0.196542 -1.33079,4.187796 -1.32226,7.747578 -1.03666,11.487822 -0.12337,-0.06578 -0.24634,-0.13125 -0.36367,-0.194934 -0.0914,-0.04986 -0.20169,-0.05052 -0.2936,-0.0018 -0.0919,0.04866 -0.15313,0.14019 -0.16311,0.243654 -0.50826,5.291701 0.39813,9.299101 2.32664,12.867211 -0.55498,-0.0419 -1.09763,-0.0589 -1.62185,-0.0535 -0.22185,0.002 -0.36915,0.23063 -0.2799,0.43376 2.34761,5.34936 7.37854,9.13188 10.7798,10.88048 -0.2086,0.3356 -0.41943,0.68119 -0.63311,1.03988 -0.0735,0.12319 -0.0527,0.28074 0.0503,0.38058 l 7.43583,7.21795 c 0.14176,0.13726 0.37406,0.1085 0.47806,-0.0592 0.89578,-1.44901 1.8658,-2.90603 2.89812,-4.36975 l 3.44747,7.54336 c 0.0808,0.1772 0.3032,0.23659 0.46155,0.12324 3.79093,-2.70238 8.60869,-3.91626 13.74519,-3.91626 5.13648,0 9.95265,1.21388 13.74358,3.91626 0.15827,0.11301 0.38034,0.0537 0.46113,-0.12324 l 3.46923,-7.58767 c 1.04429,1.4786 2.02516,2.9505 2.92994,4.41406 0.10399,0.16769 0.33629,0.19645 0.47806,0.0592 l 7.43583,-7.21795 c 0.103,-0.0998 0.12384,-0.25739 0.0504,-0.38058 -0.13636,-0.22889 -0.27131,-0.45123 -0.40556,-0.67057 4.49906,-1.0464 7.3828,-3.86486 9.0041,-7.45798 0.0818,-0.18148 -0.0266,-0.39185 -0.22191,-0.43054 -0.258,-0.0512 -0.51361,-0.0895 -0.76642,-0.11638 2.21717,-2.51204 3.39378,-5.69529 2.32342,-10.078622 1.17763,-2.136624 1.87486,-4.788462 1.57714,-7.909861 -0.0176,-0.181644 -0.18776,-0.30867 -0.3669,-0.273864 -0.43453,0.08441 -0.81527,0.203142 -1.15346,0.347166 0.39023,-2.082216 0.68877,-5.181528 -0.81192,-8.060082 -0.0841,-0.161202 -0.28842,-0.215448 -0.44141,-0.117198 -0.0394,0.02514 -0.0781,0.05112 -0.1172,0.07692 -0.25463,-3.076254 -1.47356,-5.672657 -3.34235,-7.907035 -0.0694,-0.08245 -0.17661,-0.122887 -0.28313,-0.106727 -0.0194,0.0035 -0.0384,0.0089 -0.0568,0.01611 -1.15709,-2.96743 -3.46061,-5.481824 -5.19013,-6.612624 -1.32752,-1.747598 -2.71099,-3.230702 -4.52078,-4.020172 -1.35747,-1.987496 -2.95886,-3.735606 -5.12087,-4.853044 -0.18036,-0.09233 -0.39931,0.01077 -0.44302,0.20862 -0.11122,0.511455 -0.0602,0.921152 -0.0395,1.349993 -1.4775,-1.305637 -3.13129,-1.946285 -4.91345,-1.956119 z m 0.0487,0.639958 c 1.81238,0.0046 3.45679,0.637287 4.93319,2.155072 0.20451,0.207028 0.55574,0.0428 0.52799,-0.24688 -0.0422,-0.416051 -0.003,-0.847447 0.0338,-1.283137 1.79602,1.051969 3.22913,2.537183 4.44627,4.310549 -0.086,0.683088 -0.0228,1.256867 0.12928,1.901749 -1.1443,-0.914587 -2.4669,-1.465191 -3.87075,-1.772066 -0.20319,-0.04455 -0.39155,0.120118 -0.37455,0.32743 0.1284,1.554042 0.60382,2.525066 1.10794,3.3927 -0.67163,-0.157739 -1.37606,-0.280781 -2.19696,-0.175192 -1.62905,-0.431878 -3.12574,-1.498596 -4.51273,-3.167567 0.83292,-0.164558 1.6542,-0.306213 2.28315,-0.159487 0.36147,0.08762 0.54165,-0.420115 0.2058,-0.579949 -1.83622,-0.891971 -3.39054,-2.119135 -4.27429,-4.565082 0.5338,-0.09156 1.05436,-0.13943 1.56183,-0.13814 z m -25.22414,0.399923 c -1.497,2.712703 -3.24371,4.534257 -4.96662,5.879633 -1.15783,0.04892 -2.2587,0.25094 -3.3053,0.593641 1.06133,-1.087279 2.31608,-2.233574 4.08904,-3.550575 0.13808,-0.101894 0.16682,-0.296733 0.0641,-0.434156 -0.10191,-0.136935 -0.2955,-0.165413 -0.43254,-0.06363 -1.65824,1.231781 -2.87894,2.326395 -3.9054,3.356452 0.43138,-0.980515 0.67127,-2.04805 0.82966,-3.147832 1.94618,-1.555441 4.67577,-2.197781 7.62713,-2.633531 z m 26.52581,0.954095 c -0.0988,-0.0037 -0.19335,0.03999 -0.25454,0.117601 -0.1053,0.134074 -0.0822,0.328074 0.0515,0.433754 l 2.22234,1.750317 c 0.13434,0.106388 0.32958,0.08327 0.43536,-0.05155 0.1053,-0.134075 0.0822,-0.328074 -0.0516,-0.433755 l -2.22394,-1.75072 c -0.0514,-0.04023 -0.11405,-0.06321 -0.17922,-0.06564 z m 5.56025,0.947653 c -0.0591,8.4e-4 -0.11663,0.0186 -0.16593,0.05115 -0.14279,0.09438 -0.18178,0.286798 -0.087,0.429324 l 1.31214,1.9682 c 0.0945,0.142656 0.2869,0.181459 0.42932,0.08659 0.14224,-0.09491 0.18048,-0.287218 0.0854,-0.429324 l -1.31213,-1.968201 c -0.0582,-0.08737 -0.15681,-0.139231 -0.26179,-0.137737 z m -40.30281,0.171568 c -0.24643,1.969402 -0.66233,3.792333 -1.89732,5.174431 -1.47205,0.76234 -2.82615,1.824 -4.07132,3.143 -0.014,-0.156058 -0.0312,-0.313378 -0.0532,-0.47161 1.95262,-3.288238 3.17287,-3.943906 4.57878,-5.020987 0.13586,-0.103724 0.16183,-0.297983 0.058,-0.433754 -0.0496,-0.06506 -0.12308,-0.107782 -0.20419,-0.118809 -0.0818,-0.01063 -0.16442,0.01184 -0.22956,0.06243 -1.2826,0.982619 -2.57277,1.741394 -4.3774,4.611399 -0.10794,-0.426266 -0.25473,-0.852619 -0.45188,-1.27025 1.78221,-2.600718 3.78652,-4.59684 6.64806,-5.675846 z m 44.0745,3.000027 c 1.42992,0.75488 2.64703,1.944517 3.81719,3.47204 -0.12375,0.865198 -0.0481,1.754863 0.1619,2.653265 -0.8814,-0.856958 -1.80931,-1.730747 -3.32907,-2.036667 -0.17957,-0.03562 -0.35061,0.09164 -0.36811,0.273865 -0.13818,1.483948 0.17463,2.489441 0.52478,3.411227 -0.8451,-0.366104 -1.73889,-0.594733 -2.69354,-0.62707 -1.67564,-1.066971 -2.6097,-1.983919 -3.39351,-3.321415 0.72283,-0.0022 1.41437,0.05071 2.09144,0.234396 0.27065,0.07317 0.49125,-0.222591 0.34394,-0.46114 -0.55265,-0.892388 -1.02542,-1.819211 -1.23722,-3.249726 1.44468,0.357777 2.7781,0.85702 3.7886,1.946855 0.22731,0.243809 0.62642,0.005 0.51913,-0.310514 -0.29708,-0.860472 -0.26436,-1.360149 -0.22553,-1.985116 z m -7.76729,0.801054 c -0.12114,-0.0034 -0.23307,0.06434 -0.28635,0.173179 -0.0753,0.153362 -0.012,0.338743 0.14136,0.414018 l 1.93195,0.948458 c 0.15347,0.07526 0.3389,0.01178 0.41403,-0.141765 0.0753,-0.15347 0.0118,-0.338892 -0.14177,-0.414018 l -1.93156,-0.948458 c -0.0398,-0.0195 -0.0833,-0.03022 -0.12766,-0.03142 z m -33.51097,0.704396 c -0.8512,2.02398 -2.04468,3.880249 -4.29887,4.977491 0.008,-0.112308 0.0132,-0.225796 0.0169,-0.341123 0.005,-0.141515 -0.0875,-0.268088 -0.22352,-0.307293 -0.0662,-0.019 -0.13702,-0.01532 -0.20097,0.01048 -0.25728,0.103438 -0.51717,0.20346 -0.7781,0.302459 1.19027,-0.938512 2.41277,-1.943399 3.28195,-2.978278 0.11069,-0.130969 0.0937,-0.326996 -0.0379,-0.436975 -0.0632,-0.05312 -0.14495,-0.07878 -0.22715,-0.07129 -0.0817,0.0072 -0.15717,0.04665 -0.20982,0.109546 -1.17816,1.402754 -3.16181,2.841448 -4.75398,4.123275 -0.44521,0.180637 -0.8885,0.373693 -1.32622,0.589212 0.0248,-0.403833 0.0425,-0.839457 0.0362,-1.297233 2.46596,-2.780356 5.33089,-4.399279 8.72138,-4.680267 z m 38.85979,0.316556 c -0.0816,1.1e-5 -0.15995,0.0323 -0.21788,0.08981 -0.12158,0.120923 -0.12158,0.317663 0,0.438585 l 1.45832,1.457927 c 0.12074,0.120494 0.31624,0.120494 0.43698,0 0.1213,-0.120877 0.1213,-0.317305 0,-0.438183 l -1.45833,-1.458329 c -0.0582,-0.05781 -0.13704,-0.09012 -0.21909,-0.08981 z m -20.90796,0.09988 c 5.63154,0.03778 11.01656,1.749709 15.28084,5.414064 0.031,0.02659 0.0535,0.08134 0.0503,0.12203 l -0.77448,9.805163 c -5.72457,-3.150036 -11.00685,-4.55712 -16.07222,-4.519574 -4.98428,0.03695 -9.75833,1.47218 -14.53899,4.015742 0.0418,-0.21456 0.0799,-0.42918 0.11356,-0.643986 0.49859,-3.183803 0.038,-6.370091 -1.84697,-8.843412 -0.0298,-0.03916 -0.0205,-0.09159 0.0214,-0.1176 5.49977,-3.416546 11.77304,-5.27263 17.76657,-5.232427 z m 25.0989,0.08297 c -0.0542,4.52e-4 -0.10748,0.01517 -0.15425,0.04269 -0.14742,0.08613 -0.19716,0.275399 -0.11116,0.422879 l 0.87516,1.493369 c 0.0861,0.147651 0.27571,0.197436 0.42328,0.111156 0.14706,-0.08668 0.19609,-0.276134 0.10955,-0.423282 l -0.87356,-1.494577 c -0.056,-0.09513 -0.15861,-0.15315 -0.26902,-0.152235 z m -53.34683,0.477653 c 1.0294,1.748331 1.00343,3.789217 0.8961,5.336333 -0.61824,0.344849 -1.22064,0.747183 -1.79543,1.23803 -0.12808,-0.376542 -0.14141,-0.782973 -0.0914,-1.226753 0.0661,-0.586684 0.24837,-1.224016 0.40032,-1.873959 0.0386,-0.166502 -0.065,-0.332805 -0.23157,-0.371328 -0.166,-0.03877 -0.33207,0.06409 -0.37133,0.229965 -0.14701,0.628782 -0.33799,1.286267 -0.41241,1.946856 -0.0657,0.583374 -0.0363,1.181433 0.21869,1.740652 -0.20536,0.200311 -0.40652,0.413692 -0.6029,0.64197 -0.32527,-0.737966 -0.72241,-1.449862 -1.17601,-2.154267 0.19505,-1.983855 1.36686,-4.043593 3.16596,-5.507499 z m 55.99324,1.588012 c 1.65634,1.231046 3.81057,3.649468 4.74834,6.473276 -0.1339,0.541043 -0.218,1.236211 -0.19252,1.992768 -1.08466,-1.230034 -2.53917,-2.052658 -4.20101,-2.308922 -0.17538,-0.02694 -0.33744,0.09888 -0.35481,0.275476 -0.0975,0.992356 0.0548,1.947645 0.28313,2.886051 -0.76107,-0.53377 -1.64955,-0.921938 -2.68951,-1.024174 -1.12713,-0.975193 -2.52942,-2.156592 -3.48453,-4.536488 0.94974,0.08043 1.84234,0.289275 2.63514,0.7491 0.25479,0.147011 0.5516,-0.111076 0.44141,-0.383812 -0.39124,-0.971615 -0.71071,-1.929548 -0.67902,-3.306111 1.42373,0.44659 2.32591,1.421201 3.39149,2.393094 0.24503,0.227061 0.62618,-0.04174 0.49457,-0.348775 -0.41059,-0.972713 -0.47197,-1.916753 -0.39268,-2.861483 z m -7.65855,0.376162 c -0.0962,-0.0054 -0.18941,0.03437 -0.25211,0.107532 -0.11177,0.12979 -0.0968,0.325698 0.0334,0.436974 l 1.53123,1.312134 c 0.12978,0.111771 0.3257,0.09678 0.43698,-0.03343 0.11176,-0.12979 0.0968,-0.325699 -0.0334,-0.436976 l -1.53122,-1.312133 c -0.0517,-0.04441 -0.11676,-0.07046 -0.18487,-0.0741 z m -43.03904,2.185278 c -0.35272,3.833288 -2.88253,5.752372 -4.75397,7.455963 -0.54442,-0.03888 -1.07006,-0.03114 -1.57754,0.01974 -0.0135,-0.260514 -0.0358,-0.515928 -0.0661,-0.766818 1.73694,-0.798281 2.75365,-2.107595 3.6275,-3.492178 0.0909,-0.144684 0.0472,-0.33566 -0.0975,-0.426504 -0.0692,-0.04408 -0.15309,-0.05886 -0.23319,-0.04108 -0.0801,0.01818 -0.1496,0.06745 -0.19332,0.136932 -0.82371,1.305149 -1.70664,2.449365 -3.19897,3.183677 -0.12027,-0.663338 -0.29918,-1.29596 -0.528,-1.907789 1.96432,-2.440353 4.48416,-3.183723 7.021,-4.161938 z m 52.25983,0.293599 c -0.0325,0.0023 -0.0645,0.0096 -0.0947,0.02174 -0.15859,0.06406 -0.2351,0.244666 -0.17076,0.403145 l 1.0564,2.624269 c 0.0641,0.15882 0.24495,0.235369 0.40355,0.170763 0.15777,-0.06421 0.23393,-0.243906 0.17035,-0.401937 l -1.05639,-2.624269 c -0.0499,-0.124703 -0.17452,-0.202969 -0.3085,-0.193719 z m -3.42331,0.255741 c -0.0542,-0.0033 -0.10845,0.0079 -0.15707,0.03222 -0.15232,0.0763 -0.21426,0.261409 -0.13854,0.414019 l 0.87516,1.750721 c 0.0763,0.15325 0.26261,0.215349 0.41563,0.138543 0.15325,-0.07632 0.21535,-0.262619 0.13854,-0.41563 l -0.87556,-1.749109 c -0.0493,-0.09898 -0.14777,-0.164087 -0.25816,-0.170764 z m -58.09113,0.811526 c 1.30266,1.937649 2.19512,3.836441 2.30852,6.198603 -1.26045,0.219228 -2.40535,0.711948 -3.44949,1.42128 0.17457,-1.147284 0.52063,-2.433744 1.10432,-3.908614 0.0622,-0.158472 -0.0154,-0.337383 -0.17358,-0.400326 -0.15847,-0.06215 -0.33739,0.01541 -0.40033,0.173582 -0.70061,1.770305 -1.0768,3.294638 -1.22151,4.647644 -0.43121,0.346938 -0.84433,0.731964 -1.24045,1.15023 -0.20925,-0.207228 -0.42576,-0.40719 -0.65003,-0.599682 0.56848,-3.266286 1.69366,-6.034408 3.72255,-8.682717 z m 56.20227,1.19252 c -0.0683,0.0024 -0.13385,0.02731 -0.18647,0.07088 -0.13152,0.108907 -0.14991,0.303785 -0.0411,0.435364 l 1.24085,1.49498 c 0.1089,0.131518 0.30378,0.149905 0.43536,0.04108 0.13152,-0.108905 0.14991,-0.303784 0.0411,-0.435364 l -1.24085,-1.494979 c -0.052,-0.06312 -0.12685,-0.103083 -0.20821,-0.111157 -0.0136,-0.0011 -0.0271,-0.0014 -0.0407,-7.8e-4 z m 9.08546,1.631105 c 1.63508,2.123543 2.72241,4.507268 2.88283,7.381058 -0.62185,0.500682 -1.16399,1.112436 -1.53284,1.892082 -0.62074,-1.564494 -1.75711,-2.784912 -3.06406,-3.31497 v -4.08e-4 c -0.14824,-0.06034 -0.31803,0.0024 -0.39147,0.144588 -0.62787,1.212294 -0.70543,2.276598 -0.64519,3.286374 -0.84787,-1.17528 -1.83485,-2.168352 -3.09749,-2.77167 -0.32233,-1.11969 -1.27151,-2.870118 -2.11158,-4.397541 1.28959,0.06848 2.38798,0.468987 3.15267,1.217889 0.22816,0.222834 0.60342,-0.0036 0.51269,-0.309306 -0.29484,-0.986862 -0.40727,-1.971596 -0.37414,-2.966596 1.6115,0.339029 3.05276,1.098487 3.94083,2.42491 0.1857,0.276492 0.61722,0.104502 0.56182,-0.223923 -0.16236,-0.950151 -0.0161,-1.73453 0.16593,-2.362487 z m -2.9815,2.232803 c -0.0295,-5.63e-4 -0.0589,0.0031 -0.0874,0.01087 -0.16489,0.04526 -0.26178,0.215756 -0.21627,0.380589 l 0.61982,2.258982 c 0.0446,0.165354 0.21499,0.263028 0.38019,0.217884 0.16491,-0.04524 0.26179,-0.215754 0.21627,-0.380592 l -0.61941,-2.26059 c -0.0365,-0.132415 -0.15587,-0.224925 -0.2932,-0.227148 z m -31.25118,0.293601 c 4.91377,0.0318 10.04476,1.467858 15.65499,4.597704 l -0.53082,6.72378 c -1.20295,-3.22737 -3.86639,-6.117288 -6.52804,-7.170018 l -4.1e-4,0.0012 c -0.0354,-0.01434 -0.073,-0.02196 -0.11115,-0.02256 h -8.95941 v -4.12899 c 0.15807,-0.0018 0.31632,-0.0024 0.47484,-0.0012 z m -1.09425,0.01608 v 4.114014 h -5.67384 a 0.2083868,0.2083868 0 0 0 -0.0805,0.01614 l -0.0161,0.0068 c -4.09968,1.62738 -6.60142,4.659384 -7.56511,8.88651 -1.46472,-0.386514 -2.85595,-0.83952 -4.1418,-1.366104 1.57408,-2.12394 2.83988,-4.752108 3.49298,-7.459188 4.6362,-2.537346 9.21633,-4.026636 13.98442,-4.198188 z m 35.92339,0.565854 c -0.17096,0.01386 -0.29798,0.164208 -0.28313,0.335082 l 0.25575,2.989554 c 0.0147,0.17031 0.16478,0.296394 0.33507,0.28152 0.17031,-0.0147 0.2964,-0.164784 0.28152,-0.335082 l -0.25574,-2.989554 c -0.0147,-0.169626 -0.16378,-0.295458 -0.33347,-0.28152 z m -62.05009,0.792198 c 0.13218,4.08e-4 0.26548,0.0036 0.40033,0.01008 -0.20372,2.532354 -1.09911,4.911594 -2.27428,6.459582 -0.54525,0.356574 -1.10364,0.75465 -1.66575,1.207824 -0.21445,-0.482982 -0.43796,-0.94728 -0.67298,-1.392684 0.84255,-0.801156 1.49714,-1.823154 1.96619,-3.049164 0.0606,-0.159246 -0.019,-0.33753 -0.17801,-0.398712 -0.15972,-0.06169 -0.33916,0.01812 -0.40033,0.178014 -0.41876,1.094562 -0.98408,1.993572 -1.69716,2.706828 -0.57554,-1.008144 -1.21824,-1.91406 -1.95491,-2.718108 1.79663,-1.905012 3.88279,-3.011754 6.4769,-3.003648 z m 56.15837,0.447042 c -0.0542,0.0024 -0.10676,0.0183 -0.15263,0.0471 -0.14504,0.09129 -0.1882,0.283098 -0.0963,0.427716 l 1.12969,1.785354 c 0.0914,0.143904 0.28192,0.186768 0.4261,0.09585 0.14447,-0.09083 0.18808,-0.281496 0.0975,-0.426096 l -1.13091,-1.786968 c -0.044,-0.06888 -0.11352,-0.117534 -0.19331,-0.135324 -0.0263,-0.006 -0.0532,-0.0086 -0.0801,-0.0076 z m -65.18019,1.25736 c 2.20711,1.511838 3.75791,3.567846 4.98796,6.385878 -1.00641,0.869004 -2.01454,1.924878 -2.9666,3.241272 -0.77055,-2.052342 -0.66478,-3.96087 -0.56626,-5.931588 0.008,-0.170598 -0.123,-0.315744 -0.2936,-0.32421 -0.17074,-0.0084 -0.31596,0.123246 -0.3242,0.294006 -0.10423,2.084676 -0.22744,4.23561 0.76159,6.569532 -0.35551,0.531228 -0.70178,1.101738 -1.03545,1.715676 -0.49018,-0.283296 -0.96907,-0.541392 -1.42289,-0.782934 -0.29949,-3.710376 -0.33055,-7.147734 0.85945,-11.167632 z m 68.81132,1.12929 c 1.16944,0.58137 2.27564,1.68912 2.70642,3.228378 0.0842,0.300282 0.50945,0.301428 0.59526,0.0018 0.31063,-1.078122 1.08105,-1.725366 1.97424,-2.327448 1.30644,2.813712 0.92626,5.845812 0.52719,7.785408 -0.5525,0.353622 -0.9664,0.782838 -1.3218,1.221516 -0.57907,-1.422468 -1.35742,-2.809812 -2.71367,-4.030644 -0.10944,-0.09859 -0.27321,-0.106344 -0.39147,-0.01854 -1.0917,0.81294 -1.70223,1.839774 -2.22998,2.870748 -0.53748,-1.124544 -1.27718,-2.001108 -2.28073,-2.777316 -0.76324,-1.502982 -1.03165,-3.285816 -0.97826,-5.256588 1.25566,0.691434 2.29953,1.6938 3.11279,3.068898 0.17507,0.29793 0.63267,0.128184 0.57109,-0.211842 -0.19517,-1.107696 -0.15748,-2.23527 0.42892,-3.554202 z m -39.19285,0.542088 h 14.59175 c -1.58232,2.503554 -2.43601,6.585636 -2.31698,9.666216 -2.33709,0.214806 -4.73515,0.310032 -7.12209,0.273462 -4.30443,-0.06593 -8.56892,-0.555774 -12.35976,-1.494576 0.91381,-4.041852 3.21751,-6.851412 7.10156,-8.424558 0.0281,-0.01134 0.0753,-0.02052 0.10552,-0.02052 z m 15.22325,0.0874 c 0.012,-0.0036 0.0248,-0.0024 0.0362,0.0024 1.1379,0.510048 2.29899,1.40937 3.3202,2.535666 -1.43745,-0.388674 -2.90455,-0.587874 -4.40761,-0.470406 0.29696,-0.771354 0.63921,-1.470588 1.02135,-2.04633 0.007,-0.01038 0.0178,-0.01788 0.0298,-0.02136 z m 24.59143,1.21266 c -0.0294,-0.0012 -0.0588,0.0018 -0.0874,0.0089 -0.16549,0.0414 -0.26622,0.208974 -0.22514,0.37455 l 0.58277,2.333484 c 0.0414,0.16629 0.21006,0.267246 0.37617,0.225132 0.16608,-0.0414 0.26698,-0.209784 0.22513,-0.375756 l -0.58438,-2.333892 c -0.0339,-0.13239 -0.15061,-0.22686 -0.28716,-0.23238 z m -39.35636,0.348372 c -0.95565,0 -1.90978,0.614118 -2.76604,1.438188 -0.85626,0.824076 -1.61401,1.880028 -2.11279,2.869542 -0.24997,0.495936 -0.19316,1.032582 0.0886,1.409598 0.28178,0.37701 0.75945,0.598074 1.30126,0.598074 h 13.16242 c 0.33713,0 0.60887,-0.309084 0.59042,-0.634728 -0.0803,-1.415652 0.44574,-3.589008 1.39912,-4.84821 0.10766,-0.142188 0.19944,-0.340872 0.1019,-0.555378 -0.0975,-0.2145 -0.32359,-0.277086 -0.50544,-0.277086 z m 0,0.619416 h 0.46878 c -0.62669,0.742194 -1.10064,1.72353 -1.34435,2.823624 h -2.76845 c 0.38431,-0.559296 0.83351,-1.102632 1.30731,-1.558614 0.79671,-0.766758 1.66276,-1.26501 2.33671,-1.26501 z m 1.32542,0 h 3.03426 c -0.62655,0.742206 -1.10019,1.723488 -1.34355,2.823624 h -3.24731 c 0.28928,-1.176126 0.858,-2.18472 1.5566,-2.823624 z m 3.8909,0 h 3.03385 c -0.62652,0.742188 -1.09979,1.723542 -1.34315,2.823624 h -3.2477 c 0.28927,-1.176126 0.8584,-2.18472 1.557,-2.823624 z m 3.89048,0 h 1.98673 c -0.56895,0.802848 -0.97989,1.816434 -1.21669,2.823624 h -2.32583 c 0.28885,-1.176126 0.85724,-2.18472 1.55579,-2.823624 z m 5.43017,0.472014 c 1.45148,-0.006 2.88023,0.282828 4.3029,0.745476 0.35383,0.460218 0.68232,0.947094 0.97705,1.451478 -1.02905,-0.303942 -2.08012,-0.505692 -3.15226,-0.603306 -1.18828,-0.10818 -2.40281,-0.08797 -3.6428,0.06525 0.13314,-0.549162 0.2872,-1.087092 0.46033,-1.601304 0.35317,-0.03738 0.70452,-0.05616 1.05478,-0.0576 z m 29.0796,0.054 c -0.15221,-0.0036 -0.28462,0.103566 -0.31213,0.253326 l -0.61982,3.353232 c -0.0313,0.168198 0.0798,0.32988 0.24809,0.360852 0.1682,0.03132 0.3299,-0.07982 0.36086,-0.248088 l 0.61941,-3.353232 c 0.0314,-0.168192 -0.0798,-0.329886 -0.24808,-0.360852 -0.016,-0.003 -0.0321,-0.0048 -0.0483,-0.0054 z m -7.48899,0.03624 c -0.0406,0.0012 -0.0806,0.01038 -0.1176,0.027 -0.15586,0.07013 -0.22529,0.253374 -0.15506,0.409188 l 0.80065,1.785756 c 0.0702,0.155856 0.25338,0.225294 0.40919,0.155052 0.15533,-0.06998 0.22484,-0.252378 0.15546,-0.407976 l -0.80226,-1.786962 c -0.0513,-0.113664 -0.16574,-0.185436 -0.29038,-0.18204 z m -57.36942,0.01452 c 0.24474,1.494864 0.43785,4.264158 0.0958,6.686328 -0.0289,-0.04698 -0.0574,-0.09402 -0.087,-0.140958 -0.0581,-0.09232 -0.16041,-0.147252 -0.26943,-0.144588 -0.10882,0.0024 -0.20824,0.06227 -0.26178,0.157068 -0.95707,1.694881 -1.88559,3.450133 -2.62347,5.469643 -0.40187,-0.651192 -0.86554,-1.23468 -1.36811,-1.76079 1.50683,-1.952832 1.75775,-3.693853 2.09345,-5.155099 0.0386,-0.166374 -0.0648,-0.332616 -0.23117,-0.371328 -0.16702,-0.03888 -0.33377,0.06554 -0.37174,0.232782 -0.34067,1.4829 -0.55351,3.040447 -1.93315,4.853851 -0.87393,-0.825822 -1.83772,-1.500726 -2.78376,-2.076942 2.34457,-4.325173 5.25911,-6.337567 7.7403,-7.749967 z m 3.91345,2.018544 c 5.03507,3.783234 13.43406,5.56293 22.01349,5.694373 8.69901,0.133278 17.53119,-1.414069 23.12786,-4.374589 l -0.86186,3.945666 c -9.99248,4.270201 -29.08759,5.323387 -42.17315,0.341934 z m 32.47834,0.01974 c 1.75548,-0.0024 3.44966,0.28167 5.08986,0.836892 0.2505,0.505104 0.46495,1.022712 0.63552,1.545324 -1.51461,-0.321918 -2.9636,-0.532926 -4.34318,-0.627066 -1.38365,-0.09442 -2.69797,-0.07084 -3.94042,0.07567 0.0724,-0.55467 0.16798,-1.116384 0.28473,-1.672188 0.76928,-0.105042 1.52693,-0.1578 2.27349,-0.158676 z m 19.53461,0.68385 c 1.39147,0.927024 2.36454,1.845132 2.92391,3.330282 0.0953,0.25404 0.44815,0.271074 0.56746,0.02736 0.52913,-1.08384 1.12239,-2.083434 2.10392,-2.89974 1.25895,1.20951 2.02497,2.549046 2.56023,3.980298 0.0858,0.232884 0.3971,0.27501 0.54169,0.07326 0.58697,-0.813672 1.36302,-1.50078 2.74147,-1.881612 0.17824,2.808409 -0.4239,5.214091 -1.4978,7.151491 -0.77274,0.472278 -1.57874,1.016938 -2.38061,1.850598 -0.65214,-1.886934 -1.44753,-3.714786 -2.77167,-5.260614 -0.11415,-0.132996 -0.31588,-0.144696 -0.44463,-0.0258 -0.97409,0.896496 -1.77737,1.99257 -2.4096,3.271068 -0.30743,-1.408206 -0.90061,-2.449044 -1.61701,-3.241266 l 0.002,-6e-4 c -0.62241,-2.093017 -0.77904,-4.047697 -0.31978,-6.374605 z m -38.72407,0.144186 h 3.05319 c -0.0725,0.528444 -0.0922,1.077348 -0.052,1.635132 h -2.45069 c -0.37418,0 -0.65798,-0.151422 -0.80669,-0.350388 -0.14871,-0.19896 -0.19119,-0.442542 -0.0307,-0.761178 0.0867,-0.172092 0.18287,-0.347244 0.28676,-0.523566 z m 3.68509,0 h 3.2602 c -0.0723,0.528444 -0.0922,1.077342 -0.052,1.635132 h -3.27107 c -0.043,-0.55884 -0.0181,-1.109178 0.0628,-1.635132 z m 3.8905,0 h 3.26019 c -0.0723,0.528444 -0.0922,1.077348 -0.052,1.635132 h -3.27107 c -0.043,-0.55884 -0.0181,-1.109178 0.0628,-1.635132 z m 3.89209,0 h 2.32503 c -0.0951,0.576048 -0.13126,1.13526 -0.10431,1.635132 h -2.28355 c -0.043,-0.55884 -0.0179,-1.109178 0.0628,-1.635132 z m 7.55021,1.489338 c 1.87604,0.0054 3.90982,0.256128 6.09148,0.739842 0.0102,0.04086 0.0197,0.08158 0.0294,0.12243 -2.65565,0.712944 -5.60063,1.233246 -8.6646,1.544514 -0.0245,-0.702486 0.005,-1.469442 0.0842,-2.261796 0.78662,-0.09957 1.6068,-0.147582 2.45954,-0.14499 z m 25.50848,0.696744 c -0.15372,0.01194 -0.27517,0.135288 -0.28474,0.28917 l -0.18284,2.770465 c -0.0111,0.170796 0.11875,0.318066 0.28957,0.328638 0.17005,0.01104 0.31701,-0.117546 0.32864,-0.287562 l 0.18123,-2.770459 c 0.012,-0.170814 -0.11711,-0.318852 -0.28796,-0.330252 -0.0146,-6e-4 -0.0293,-6e-4 -0.0439,0 z m -4.39029,1.23924 c -0.0162,2.1e-4 -0.0323,0.0018 -0.0483,0.0048 -0.168,0.02874 -0.28111,0.187932 -0.25292,0.356022 l 0.50987,3.026209 c 0.0289,0.168012 0.18833,0.280956 0.35642,0.252516 0.16849,-0.02814 0.28227,-0.187536 0.25414,-0.356022 l -0.51149,-3.024595 c -0.0249,-0.150156 -0.15548,-0.25983 -0.30769,-0.258558 z m -67.89952,0.619416 c 2.3475,1.254361 5.48178,2.817091 7.14787,5.888899 -0.53526,1.626434 -0.943,3.428354 -1.1458,5.503474 -1.61577,-2.00447 -2.48519,-4.29519 -3.44465,-6.600952 -0.0655,-0.157398 -0.24595,-0.232146 -0.40355,-0.16713 -0.15823,0.06531 -0.23332,0.24672 -0.16754,0.404754 1.02832,2.471228 1.98098,5.023768 3.94365,7.236468 -0.0185,0.27502 -0.0334,0.55476 -0.0448,0.83931 -1.14521,-0.36288 -2.29875,-0.59573 -3.41445,-0.72413 -1.94873,-3.44809 -2.87683,-7.271788 -2.47082,-12.380693 z m 10.32189,0.494568 c 1.37441,2.411719 1.78207,4.828291 1.44181,7.450325 -0.61956,2.18228 -0.92293,4.6718 -0.79663,7.22077 -1.04287,-2.26595 -1.38107,-5.01625 -1.0149,-8.26266 0.0185,-0.16997 -0.10428,-0.32277 -0.27427,-0.34113 -0.16926,-0.0184 -0.32154,0.1035 -0.34072,0.27266 -0.3717,3.29539 -0.037,6.14707 1.03706,8.52243 -1.21914,-0.89515 -2.53645,-1.5628 -3.8768,-2.04472 0.19526,-5.74143 1.91021,-9.375678 3.82445,-12.817675 z m 48.27066,0.616999 -0.79018,3.61824 c -3.13361,1.599356 -9.84317,2.962786 -17.29737,3.357256 -7.50083,0.39693 -15.77919,-0.17211 -22.03081,-2.33188 l -1.60493,-4.271886 c 13.09739,4.782266 31.54341,3.799512 41.72329,-0.37173 z m 6.61142,0.580752 c 1.30849,0.885114 2.50369,2.080254 2.79784,4.619864 0.038,0.31955 0.47804,0.37582 0.59526,0.0761 0.55855,-1.423946 1.40972,-2.530394 2.40638,-3.501044 1.21125,1.517172 2.00405,3.291824 2.63192,5.187724 0.077,0.2272 0.37202,0.28413 0.528,0.1019 0.74695,-0.88038 1.49152,-1.36864 2.25737,-1.84013 0.92796,4.23294 -0.2788,7.15639 -2.55379,9.55264 -1.21548,-0.0112 -2.35504,0.25016 -3.3778,0.7189 0.28504,-2.02519 0.14398,-3.62289 -0.22836,-5.346 -0.0314,-0.14483 -0.16114,-0.24702 -0.3093,-0.24367 -1.4874,0.0355 -3.02595,0.13002 -4.93158,1.68669 0.12051,-1.38087 0.14147,-2.82303 -0.0882,-4.19859 l 0.0149,-0.002 c -0.16327,-2.14375 -0.35753,-4.637354 0.25735,-6.813188 z m 11.17649,0.241248 c -0.0325,-0.0024 -0.0651,5.7e-4 -0.0967,0.0085 -0.0788,0.0201 -0.14652,0.07046 -0.18848,0.140154 l -1.42208,2.370138 c -0.0881,0.146256 -0.0411,0.33627 0.10512,0.424488 0.14665,0.08821 0.33706,0.04056 0.42488,-0.106326 l 1.42169,-2.370132 c 0.087,-0.146418 0.0393,-0.33564 -0.10673,-0.423282 -0.0418,-0.02514 -0.089,-0.04008 -0.13774,-0.0435 z m -63.00217,3.553794 c 1.72878,2.727062 2.87112,6.970432 2.70402,10.651332 -0.68375,0.80842 -1.37451,1.64299 -2.08218,2.55257 -0.20299,-2.23347 -0.27666,-4.60775 0.12405,-7.03027 0.0271,-0.16791 -0.0864,-0.32624 -0.25414,-0.35441 -0.16849,-0.0281 -0.32788,0.0856 -0.35602,0.25414 -0.38743,2.34229 -0.34322,4.62351 -0.16674,6.76123 -0.51177,-0.69329 -1.06799,-1.31535 -1.65849,-1.87154 -0.44504,-4.0624 0.30909,-8.06923 1.6895,-10.963052 z m 44.25613,0.0117 -1.24246,5.687122 c -0.06,0.27465 -0.38264,0.52847 -0.63753,0.49941 -0.62484,-0.0712 -1.21419,-0.23113 -1.68065,-0.4688 l -0.82481,-0.42005 c -1.55051,-0.78998 -3.90827,-0.78998 -5.45877,0 l -0.82482,0.42005 c -1.30952,0.66719 -3.58903,0.66719 -4.89855,0 l -0.82482,-0.42005 c -1.55051,-0.78998 -3.90825,-0.78998 -5.45876,0 l -0.82482,0.42005 c -1.30947,0.66719 -3.58903,0.66719 -4.89855,0 -0.27493,-0.14006 -0.54828,-0.27998 -0.82321,-0.42005 -1.55045,-0.78998 -3.90989,-0.78998 -5.46038,0 l -0.82481,0.42005 c -0.46647,0.23767 -1.05581,0.39755 -1.68065,0.4688 -0.25898,0.0295 -0.65944,-0.23997 -0.76078,-0.50988 l -1.75434,-4.671 c 6.31253,2.06829 14.41613,2.59034 21.7815,2.20058 7.18355,-0.38014 13.6403,-1.61222 17.09721,-3.206232 z m 13.34326,0.625862 c -0.15217,0.0117 -0.27307,0.13258 -0.28474,0.28473 l -0.25575,3.20744 c -0.0136,0.17072 0.11399,0.32003 0.28475,0.33308 0.1701,0.013 0.31857,-0.11426 0.33186,-0.28434 l 0.25574,-3.20744 c 0.0139,-0.17027 -0.11286,-0.31958 -0.28313,-0.33347 -0.0162,-0.002 -0.0325,-0.002 -0.0487,0 z m -7.36737,0.25735 c 0.9684,2.03644 1.04923,4.58199 0.78253,6.92154 -0.0318,0.28554 0.3089,0.45642 0.51874,0.26017 1.94292,-1.82442 3.26541,-1.86422 4.78417,-1.89813 0.35448,1.71632 0.5169,3.2225 0.15103,5.31821 -0.0454,0.25663 0.22739,0.45101 0.45509,0.32421 1.27845,-0.70415 2.85994,-0.91153 4.54817,-0.66936 -1.61247,3.29383 -4.29349,5.81774 -8.54578,6.74352 -2.14319,-3.42057 -4.03071,-5.68454 -5.89293,-7.86999 -0.21449,-2.70872 0.0278,-4.6151 0.62627,-6.0508 0.55196,-1.32423 1.44204,-2.24757 2.57271,-3.07937 z m 2.75355,0.10673 c -0.17053,0.005 -0.3053,0.14602 -0.30125,0.31655 l 0.0729,2.91626 c 0.004,0.1707 0.14587,0.30571 0.31656,0.30166 0.17053,-0.005 0.3053,-0.14602 0.30125,-0.31656 l -0.0729,-2.91666 c -0.005,-0.17052 -0.14602,-0.30531 -0.31656,-0.30125 z m 8.12211,3.42734 c -0.0203,-0.002 -0.0407,-6e-4 -0.0608,0.002 -0.0813,0.0103 -0.15516,0.0524 -0.2054,0.1172 l -2.9529,3.82807 c -0.10447,0.13542 -0.0792,0.32993 0.0564,0.43415 0.13534,0.10419 0.32954,0.079 0.43375,-0.0564 l 2.9513,-3.82847 c 0.10455,-0.13492 0.08,-0.32905 -0.0548,-0.43374 -0.0484,-0.037 -0.10672,-0.0589 -0.16754,-0.0628 z m -47.9803,2.44665 c -0.9772,1e-5 -1.95414,0.19866 -2.72938,0.59364 l -0.82481,0.42007 c -0.58063,0.29582 -1.35184,0.46917 -2.14461,0.50464 -0.16795,0.008 -0.30447,0.14314 -0.30447,0.31131 v 0.0104 c 0,0.16818 0.13644,0.3051 0.30447,0.29844 0.87387,-0.0347 1.73143,-0.21996 2.42612,-0.57392 l 0.82522,-0.42005 c 1.30951,-0.6672 3.58703,-0.6672 4.89654,0 0.27494,0.14007 0.55029,0.27998 0.82522,0.42005 1.55051,0.78998 3.90946,0.78998 5.45997,0 l 0.82362,-0.42005 c 1.30948,-0.6672 3.58866,-0.6672 4.89814,0 l 0.82522,0.42005 c 1.55051,0.78998 3.90785,0.78998 5.45837,0 l 0.82521,-0.42005 c 1.30953,-0.6672 3.58863,-0.6672 4.89816,0 l 0.82521,0.42005 c 0.69469,0.35395 1.55093,0.53922 2.42451,0.57392 0.16802,0.007 0.30447,-0.13026 0.30447,-0.29844 v -0.0104 c 0,-0.16817 -0.13648,-0.3038 -0.30447,-0.31131 -0.79275,-0.0355 -1.56399,-0.20882 -2.1446,-0.50464 l -0.82481,-0.42007 c -1.55051,-0.78997 -3.90827,-0.78997 -5.45877,0 l -0.82482,0.42007 c -1.30952,0.66719 -3.58903,0.66719 -4.89855,0 l -0.82482,-0.42007 c -1.55051,-0.78997 -3.90825,-0.78997 -5.45876,0 l -0.82482,0.42007 c -1.30948,0.66719 -3.58903,0.66719 -4.89855,0 -0.27493,-0.14008 -0.54828,-0.27998 -0.82321,-0.42007 -0.77525,-0.39498 -1.75378,-0.59364 -2.731,-0.59364 z m 36.34789,0.24971 c -0.17107,-0.0101 -0.31773,0.12087 -0.32702,0.29198 l -0.18124,3.20744 c -0.0101,0.17063 0.12015,0.31709 0.29078,0.32703 0.17062,0.009 0.31651,-0.12138 0.32582,-0.29199 l 0.18244,-3.20744 c 0.0101,-0.17063 -0.12014,-0.31709 -0.29078,-0.32702 z m -62.17453,0.31051 c 4.28674,0.0841 9.58995,1.64393 12.71497,6.56107 -0.35639,0.4749 -0.7174,0.97081 -1.08539,1.49741 -2.9097,-1.56078 -4.7846,-3.08906 -6.51194,-5.16034 -0.0527,-0.063 -0.12838,-0.10241 -0.21023,-0.10955 -0.0814,-0.007 -0.16228,0.0179 -0.22513,0.0701 -0.13114,0.10926 -0.14899,0.3041 -0.0399,0.43537 1.76084,2.11145 3.70698,3.69748 6.63396,5.27551 -0.3345,0.49038 -0.67468,1.00687 -1.02135,1.55217 -3.17974,-1.62937 -7.88992,-5.21533 -10.25502,-10.12172 z m 67.01348,1.22072 c -0.0203,-5.4e-4 -0.0408,6e-4 -0.0608,0.005 -0.0803,0.0137 -0.15194,0.0586 -0.19935,0.12485 l -3.13575,4.41124 c -0.0986,0.13927 -0.0659,0.33211 0.0733,0.43092 0.13919,0.0984 0.33172,0.0656 0.43053,-0.0733 l 3.13575,-4.40962 c 0.0995,-0.13938 0.0669,-0.33312 -0.0729,-0.43214 -0.0501,-0.0353 -0.10951,-0.055 -0.17075,-0.0563 z m -29.17988,0.37857 c -0.977,0 -1.95413,0.19744 -2.72938,0.59243 l -0.82482,0.42007 c -1.30948,0.66719 -3.58903,0.66719 -4.89855,0 -0.27493,-0.14008 -0.54828,-0.27999 -0.82321,-0.42007 -0.77525,-0.39499 -1.75378,-0.59203 -2.731,-0.59203 -0.9772,0 -1.95414,0.19704 -2.72938,0.59203 l -0.82481,0.42007 c -0.58063,0.29582 -1.35184,0.47049 -2.14461,0.50624 -0.16795,0.008 -0.30447,0.14315 -0.30447,0.31132 v 0.0104 c 0,0.16816 0.13644,0.30514 0.30447,0.29842 0.87387,-0.0349 1.73143,-0.22117 2.42612,-0.57511 l 0.82522,-0.42046 c 1.30951,-0.6672 3.58703,-0.6672 4.89654,0 0.27494,0.14007 0.55029,0.28039 0.82522,0.42046 1.55051,0.78997 3.90946,0.78997 5.45997,0 l 0.82362,-0.42046 c 1.30948,-0.6672 3.58866,-0.6672 4.89814,0 l 0.82522,0.42046 c 1.55051,0.78997 3.90785,0.78997 5.45837,0 l 0.82521,-0.42046 c 1.30953,-0.6672 3.58863,-0.6672 4.89816,0 l 0.82521,0.42046 c 0.69469,0.35394 1.55093,0.54022 2.42451,0.57511 0.16802,0.007 0.30447,-0.13026 0.30447,-0.29842 v -0.0104 c 0,-0.16817 -0.13648,-0.30374 -0.30447,-0.31132 -0.79275,-0.0358 -1.56399,-0.21043 -2.1446,-0.50624 l -0.82481,-0.42007 c -1.55051,-0.78997 -3.90827,-0.78997 -5.45877,0 l -0.82482,0.42007 c -1.30952,0.66719 -3.58903,0.66719 -4.89855,0 l -0.82482,-0.42007 c -0.77525,-0.39499 -1.75238,-0.59243 -2.72938,-0.59243 z m -20.35137,0.12968 -0.0334,8.29287 c -6e-4,0.23734 0.25435,0.38752 0.46115,0.27104 2.05432,-1.14954 4.42255,-2.0526 7.0947,-2.72334 -0.53523,0.64541 -1.05776,1.28981 -1.5707,1.93316 -1.54357,0.652 -3.00712,1.41915 -4.38384,2.30167 -0.12925,0.0831 -0.17796,0.24839 -0.11438,0.38825 l 0.92912,2.03344 c -1.04005,1.45956 -2.01625,2.91302 -2.91988,4.35969 l -6.98556,-6.78138 c 2.79145,-4.64003 5.12448,-7.24554 7.52282,-10.0754 z m 40.70273,0 c 2.39837,2.82986 4.73137,5.43537 7.52283,10.0754 l -6.98556,6.78138 c -0.91266,-1.46114 -1.90029,-2.92968 -2.9521,-4.40398 l 0.90939,-1.98915 c 0.0634,-0.14015 0.0141,-0.30556 -0.11559,-0.38825 -1.3527,-0.86712 -2.78918,-1.62283 -4.3029,-2.26743 -0.52163,-0.6547 -1.05378,-1.31057 -1.59848,-1.9674 2.67216,0.67074 5.04037,1.5738 7.0947,2.72334 0.2068,0.11648 0.46231,-0.0338 0.46115,-0.27104 z m -20.35136,2.03023 c -0.977,0 -1.95413,0.19744 -2.72938,0.59243 l -0.82482,0.42046 c -1.30948,0.6672 -3.58903,0.6672 -4.89855,0 -0.27493,-0.14007 -0.54828,-0.28039 -0.82321,-0.42046 -0.77525,-0.39499 -1.75378,-0.59203 -2.731,-0.59203 -0.9772,0 -1.95414,0.19704 -2.72938,0.59203 l -0.82481,0.42046 c -0.58063,0.29583 -1.35184,0.47017 -2.14461,0.50584 -0.16795,0.008 -0.30447,0.14315 -0.30447,0.31133 v 0.009 c 0,0.16817 0.13644,0.3051 0.30447,0.29844 0.87387,-0.0347 1.73143,-0.21997 2.42612,-0.57392 l 0.82522,-0.42006 c 1.30951,-0.6672 3.58703,-0.6672 4.89654,0 0.27494,0.14007 0.55029,0.27999 0.82522,0.42006 1.55051,0.78998 3.90946,0.78998 5.45997,0 l 0.82362,-0.42006 c 1.30948,-0.6672 3.58866,-0.6672 4.89814,0 l 0.82522,0.42006 c 1.55051,0.78998 3.90785,0.78998 5.45837,0 l 0.82521,-0.42006 c 1.30953,-0.6672 3.58863,-0.6672 4.89816,0 l 0.82521,0.42006 c 0.69469,0.35394 1.55093,0.53922 2.42451,0.57392 0.16802,0.007 0.30447,-0.13027 0.30447,-0.29844 v -0.009 c 0,-0.16818 -0.13648,-0.30377 -0.30447,-0.31133 -0.79275,-0.0357 -1.56399,-0.21001 -2.1446,-0.50584 l -0.82481,-0.42046 c -1.55051,-0.78998 -3.90827,-0.78998 -5.45877,0 l -0.82482,0.42046 c -1.30952,0.6672 -3.58903,0.6672 -4.89855,0 l -0.82482,-0.42046 c -0.77525,-0.39499 -1.75238,-0.59243 -2.72938,-0.59243 z m -0.0258,3.66414 c 7.06441,0 13.19648,1.64391 18.18823,4.77693 l -4.40519,9.63359 c -3.8716,-2.64602 -8.68324,-3.84498 -13.78304,-3.84498 -5.09983,0 -9.91345,1.19896 -13.78506,3.84498 l -4.4052,-9.63359 c 4.99176,-3.13302 11.12585,-4.77693 18.19026,-4.77693 z m 31.0051,0.0673 -3.17079,0.1462 c -0.17058,0.008 -0.30272,0.15201 -0.29521,0.32259 0.008,0.17124 0.15301,0.30364 0.32421,0.29522 l 3.17079,-0.1462 c 0.17057,-0.008 0.30271,-0.15202 0.29521,-0.32259 -0.008,-0.17124 -0.15301,-0.30365 -0.32421,-0.29522 z m -33.1634,0.45027 c -0.24744,-6e-4 -0.49547,0.008 -0.74427,0.029 v 4e-4 c -0.74295,0.0614 -1.49533,0.31021 -2.22515,0.74709 -0.74715,0.46292 -1.06503,0.90674 -0.99517,1.29924 0.0236,0.13277 0.15797,0.24245 0.39992,0.33267 0.21343,0.0742 0.42577,0.1501 0.63633,0.22795 -0.59297,0.0895 -1.18328,0.19376 -1.77005,0.31213 -0.14786,0.0298 -0.29561,0.0606 -0.44302,0.0922 0.005,0.002 0.0113,0.004 0.0169,0.005 -0.22418,0.0224 -0.39848,-0.0194 -0.52437,-0.12767 -0.0565,-0.0654 -0.1388,-0.2207 -0.24849,-0.46638 -0.13875,-0.0312 -0.27806,-0.0618 -0.41765,-0.0914 0.13257,0.41486 0.26871,0.82812 0.40879,1.24125 0.14026,0.41365 0.27446,0.82366 0.40032,1.23481 0.006,0.0199 -0.0169,0.0212 -0.0262,0.0153 -1.24291,-0.79432 -2.5065,-0.99733 -3.67421,-0.60774 -0.30337,0.10121 -0.61327,0.24613 -0.92631,0.43456 -0.31304,0.18841 -0.61103,0.41084 -0.89248,0.66653 -0.30234,0.28271 -0.51675,0.54935 -0.64639,0.79421 -0.12085,0.24144 -0.14477,0.44347 -0.0757,0.60532 0.0391,0.0918 0.13246,0.15057 0.27869,0.17802 0.15507,0.0238 0.30686,0.005 0.45672,-0.056 0.13247,-0.0541 0.29642,-0.15555 0.49537,-0.30286 0.1134,-0.0758 0.20856,-0.13754 0.28232,-0.18446 0.0742,-0.0472 0.14735,-0.0843 0.2191,-0.11115 0.30594,-0.11468 0.51582,-0.008 0.63109,0.31212 0.0643,0.17845 -0.10912,0.50717 -0.49537,1.00202 0.37651,-0.0535 0.75253,-0.10134 1.12807,-0.14297 0.6626,-0.84868 1.37613,-1.68022 2.1426,-2.48775 0.10533,0.0203 0.21798,0.0511 0.3379,0.0926 0.11993,0.0416 0.24333,0.0983 0.36931,0.16956 0.12736,0.0769 0.22959,0.15422 0.30689,0.23197 0.076,0.0721 0.12228,0.14578 0.14016,0.21991 l 0.62948,2.60815 c 0.0375,0.15552 0.019,0.28503 -0.0153,0.37656 -0.45822,-0.0685 -0.82643,-0.0601 -1.09304,0.0145 -0.16699,0.0467 -0.32072,0.10929 -0.46033,0.18728 -0.14626,0.0861 -0.26663,0.18095 -0.36126,0.28394 -0.0947,0.10301 -0.16046,0.20986 -0.19735,0.32017 -0.0433,0.11855 -0.046,0.23378 -0.0101,0.34556 0.0702,0.21829 0.25309,0.35593 0.55176,0.40757 0.30061,0.052 0.62639,0.0337 0.96537,-0.0721 0.55284,-0.17251 0.95654,-0.4846 1.23521,-0.92228 0.15194,0.0252 0.31898,0.0628 0.4998,0.11398 0.174,0.0586 0.34803,0.1246 0.52156,0.19775 0.1827,0.0773 0.35594,0.16053 0.52034,0.2497 0.16545,0.0949 0.31722,0.19062 0.45469,0.28635 l -0.0637,-0.38141 c -0.0675,-0.06 -0.13952,-0.11912 -0.21586,-0.1772 -0.067,-0.0535 -0.18003,-0.12665 -0.33871,-0.21627 -0.18652,-0.1026 -0.39211,-0.20303 -0.61701,-0.30085 -0.21555,-0.0938 -0.42665,-0.17502 -0.63311,-0.24325 0.0104,-0.0503 0.0281,-0.10772 0.0137,-0.17399 -0.21876,-1.00414 -0.88152,-4.01523 -1.10029,-5.01937 0.31017,-0.0677 0.62113,-0.13163 0.93315,-0.19131 0.15126,-0.0289 0.30264,-0.0568 0.4543,-0.0838 0.26401,-0.047 0.52864,-0.091 0.79381,-0.1321 l 0.71527,4.59529 c 0.2682,0.12412 0.53267,0.25184 0.7934,0.38301 l -0.66734,-5.09872 c 1.43273,-0.18685 2.88003,-0.28551 4.33391,-0.28796 1.19852,0.002 2.39245,0.0694 3.57755,0.19774 l -0.14579,1.34557 c -0.26406,-0.57598 -0.74876,-0.89988 -1.43618,-0.94282 -0.22527,-0.0141 -0.4548,0.0414 -0.68466,0.16674 -0.22969,0.11949 -0.3449,0.25749 -0.34959,0.40959 -0.29149,-0.2453 -0.61347,-0.42315 -0.96133,-0.53122 -0.2913,-0.0898 -0.60002,-0.13043 -0.92269,-0.12082 -0.55103,0.0164 -0.99605,0.20169 -1.321,0.54168 -0.28878,0.30845 -0.41175,0.63483 -0.383,0.97303 0.0178,0.21017 0.0903,0.39781 0.21466,0.56423 0.12386,0.16062 0.28521,0.29511 0.48369,0.40557 0.20767,0.10992 0.44731,0.19325 0.7201,0.25252 0.27266,0.0534 0.56867,0.0773 0.89168,0.0741 0.11323,-0.006 0.21868,-0.0157 0.31656,-0.0294 0.24318,-0.0344 0.43915,-0.0927 0.5892,-0.17761 0.21011,-0.11895 0.32509,-0.27317 0.34032,-0.46638 0.0133,-0.42542 -0.2916,-0.68287 -0.92952,-0.73621 -0.0433,-0.004 -0.0879,-0.006 -0.13412,-0.008 -0.22588,6e-4 -0.43234,0.0604 -0.6166,0.17639 -0.17513,0.10995 -0.25884,0.23613 -0.25413,0.37658 0.004,0.11742 0.0913,0.25171 0.25937,0.40596 -0.737,-0.0518 -1.12492,-0.25288 -1.14983,-0.65365 -0.008,-0.1228 0.0222,-0.24206 0.091,-0.35764 0.0779,-0.12196 0.18166,-0.22775 0.31092,-0.31615 0.13874,-0.0889 0.29874,-0.16017 0.47926,-0.21305 0.18032,-0.0587 0.37197,-0.0897 0.5739,-0.0926 0.15304,-0.002 0.29988,0.006 0.44021,0.0245 0.28294,0.0379 0.53867,0.11746 0.76521,0.23682 0.34864,0.17891 0.55083,0.40613 0.61337,0.67257 0.10841,-0.0215 0.21732,-0.0421 0.32622,-0.0624 -0.0396,-0.13142 -0.0581,-0.23516 -0.0539,-0.31133 0.0181,-0.33816 0.25601,-0.49908 0.71728,-0.46436 0.2872,0.0216 0.52557,0.11103 0.71165,0.2646 0.1963,0.14879 0.28299,0.31194 0.2642,0.48651 l -0.30085,2.79584 c 0.23054,0.18405 0.45707,0.37117 0.67942,0.56062 l 0.68507,-5.14987 c 0.75187,0.10433 1.46561,0.21525 2.13212,0.34919 0.52613,0.1056 0.94043,0.40717 1.22474,0.90173 -0.19929,-0.005 -0.39254,0.0116 -0.57955,0.0487 -0.18701,0.0372 -0.35684,0.0918 -0.50907,0.16231 -0.1428,0.0725 -0.26286,0.15902 -0.36045,0.25936 -0.0871,0.0965 -0.14121,0.20223 -0.16352,0.31736 -0.0346,0.17857 0.0222,0.35656 0.16674,0.53524 0.15493,0.17492 0.36669,0.29106 0.63795,0.3516 0.59588,0.13301 1.0571,0.0412 1.39913,-0.2948 0.0514,0.21365 0.16712,0.39897 0.34555,0.5578 0.18906,0.15572 0.40586,0.27258 0.65324,0.35239 0.33372,0.0503 0.60349,0.0439 0.81234,-0.025 0.21915,-0.0714 0.36322,-0.20631 0.42932,-0.40717 0.0753,-0.22868 -0.22138,-0.65544 -0.93839,-1.25012 0.0329,-0.11254 0.15368,-0.17855 0.36327,-0.19533 0.22057,-0.0196 0.43496,0.003 0.64077,0.0689 0.31798,0.10126 0.60883,0.35247 0.86025,0.75111 0.24729,0.40929 0.3282,0.71363 0.25816,0.90577 -0.37877,0.98363 -0.75625,1.96777 -1.13211,2.9525 0.18095,0.24354 0.35772,0.48829 0.53042,0.7342 l 1.87234,-4.83653 c 0.43278,0.16789 0.86199,0.34354 1.28797,0.52598 -0.18934,-0.25981 -0.38288,-0.51875 -0.58076,-0.77608 -0.44176,-0.21027 -0.64298,-0.49782 -0.59726,-0.87677 -0.12797,-0.14909 -0.25719,-0.29794 -0.38824,-0.44584 -0.20126,0.70161 -0.40542,1.40243 -0.61176,2.10232 -0.006,0.0204 -0.0382,5.4e-4 -0.0407,-0.0149 -0.0376,-0.22917 -0.19867,-0.57553 -0.52276,-1.0274 -0.35483,-0.4883 -0.69139,-0.77762 -0.98833,-0.86951 -0.86418,-0.26747 -1.64221,-0.12534 -2.28838,0.40193 -0.0182,-0.28846 -0.19073,-0.57476 -0.52638,-0.8506 -0.33559,-0.27576 -0.72515,-0.45833 -1.1599,-0.54289 -2.17549,-0.42311 -4.39625,-0.65147 -6.63437,-0.65607 -1.57775,0.003 -3.14691,0.11764 -4.69758,0.33307 -0.1314,-0.1385 -0.26384,-0.27612 -0.39791,-0.41321 -0.0106,-0.34801 0.33318,-0.72164 1.06243,-1.08862 0.65909,-0.33538 1.33493,-0.52299 2.00566,-0.56263 0.45769,-0.0271 0.90225,-0.0151 1.33025,0.0338 0.2375,0.0264 0.47002,0.0656 0.69715,0.1172 0.19237,0.045 0.38071,0.0989 0.56424,0.1615 0.44203,0.1431 0.83128,0.29659 1.16755,0.4547 0.33683,0.15238 0.63825,0.31107 0.90416,0.47282 -0.0496,-0.0921 -0.0997,-0.18402 -0.15023,-0.27588 -0.77157,-0.53138 -1.60672,-0.92529 -2.48572,-1.1744 -0.71173,-0.19684 -1.44576,-0.29756 -2.1881,-0.30085 z m -8.08787,4.54092 c 0.2255,-0.003 0.44795,0.0298 0.66613,0.0983 -0.53552,0.57617 -1.04508,1.16379 -1.52921,1.76038 -0.0418,-0.26505 -0.18501,-0.44887 -0.43455,-0.54772 -0.23982,-0.1018 -0.56727,-0.0786 -0.97464,0.0765 0.18464,-0.54616 0.71494,-0.98624 1.58841,-1.27065 0.2299,-0.0749 0.45837,-0.11377 0.68386,-0.1168 z m 2.70965,4.50145 c 0.14839,0.003 0.28352,0.035 0.40435,0.0773 -0.0428,0.10793 -0.13615,0.23587 -0.31172,0.36327 -0.18289,0.13272 -0.3874,0.21011 -0.5864,0.24488 -0.23374,0.0409 -0.38074,-0.0133 -0.41723,-0.16191 -0.0461,-0.18744 0.1632,-0.37923 0.62948,-0.49256 0.0984,-0.0239 0.19248,-0.0326 0.28152,-0.031 z" /></g><metadata
     id="metadata7016"><rdf:RDF><cc:Work
         rdf:about=""><dc:title>Bangladesh Police - বাংলাদেশ পুলিশ</dc:title></cc:Work></rdf:RDF></metadata></svg>
